<?xml version="1.0" standalone="no"?>
<!DOCTYPE svg PUBLIC "-//W3C//DTD SVG 20010904//EN"
 "http://www.w3.org/TR/2001/REC-SVG-20010904/DTD/svg10.dtd">
<svg version="1.0" xmlns="http://www.w3.org/2000/svg"
 width="300.000000pt" height="300.000000pt" viewBox="0 0 300.000000 300.000000"
 preserveAspectRatio="xMidYMid meet">
<metadata>
Created by potrace 1.10, written by Peter Selinger 2001-2011
</metadata>
<g transform="translate(0.000000,300.000000) scale(0.100000,-0.100000)"
fill="#000000" stroke="none">
<path d="M610 2805 c-310 -53 -517 -258 -585 -578 -18 -81 -20 -326 -4 -413
10 -59 57 -224 63 -224 2 0 23 33 47 73 92 156 221 308 348 409 92 74 153 105
228 117 137 21 263 -27 493 -189 235 -166 285 -183 385 -136 28 13 120 73 205
134 171 122 247 165 330 187 168 44 306 -11 496 -200 97 -96 169 -188 251
-322 l50 -82 27 92 c39 137 46 185 46 343 0 202 -31 332 -111 466 -47 80 -146
180 -223 227 -113 68 -280 111 -431 111 -218 0 -488 -90 -659 -219 l-66 -50
-66 50 c-222 168 -555 250 -824 204z m345 -36 c158 -26 334 -100 460 -194 41
-30 79 -55 84 -55 6 0 45 25 88 56 166 119 335 182 546 204 169 17 322 -9 467
-79 92 -44 221 -166 268 -254 84 -158 121 -391 92 -577 -14 -83 -40 -193 -49
-203 -4 -4 -34 32 -66 80 -141 214 -316 383 -463 451 -40 18 -79 27 -133 30
-137 8 -243 -38 -468 -201 -155 -113 -235 -157 -285 -157 -46 0 -126 44 -282
155 -167 119 -241 160 -340 186 -172 45 -306 -6 -498 -190 -75 -72 -170 -189
-240 -296 l-45 -69 -11 29 c-6 15 -23 94 -37 173 -25 135 -26 152 -14 231 20
139 50 253 85 323 145 288 456 420 841 357z"/>
<path d="M2180 1996 c-67 -15 -109 -37 -225 -120 -190 -137 -265 -185 -321
-206 -163 -61 -267 -29 -539 165 -183 130 -243 160 -326 160 -60 0 -72 -3
-115 -34 -303 -214 -551 -669 -629 -1151 -14 -89 -21 -269 -10 -258 3 2 12 56
20 119 8 63 20 141 25 174 46 262 155 543 296 758 75 114 241 288 318 332 95
55 181 31 379 -109 60 -42 111 -76 113 -76 3 0 15 -9 27 -21 12 -11 65 -42
117 -67 93 -46 97 -47 190 -47 92 0 98 2 180 42 47 23 126 72 175 109 299 219
375 244 491 157 173 -128 334 -344 447 -597 82 -184 134 -380 167 -625 11 -85
22 -157 25 -159 13 -13 3 189 -15 290 -66 383 -236 746 -460 981 -79 83 -157
149 -205 174 -36 19 -69 21 -125 9z"/>
<path d="M617 1462 c-13 -15 -17 -39 -17 -115 l0 -97 -98 0 c-131 0 -132 -2
-132 -142 0 -136 2 -138 133 -138 l97 0 0 -98 c0 -129 3 -132 131 -132 52 0
100 4 107 9 19 11 31 74 32 154 l0 67 95 0 c127 0 133 6 134 138 1 139 -2 142
-134 142 l-105 0 0 103 c0 67 -4 107 -12 115 -8 8 -48 12 -113 12 -86 0 -104
-3 -118 -18z m222 -128 l-1 -116 116 1 116 2 0 -105 0 -106 -117 0 -118 0 0
-117 0 -118 -102 -3 -103 -3 0 121 0 120 -120 0 -120 0 0 105 0 105 120 0 120
0 0 115 0 115 106 0 105 0 -2 -116z"/>
<path d="M2220 1463 c-42 -22 -80 -76 -80 -115 0 -76 60 -141 131 -141 46 0
83 22 109 66 65 107 -52 245 -160 190z m95 -28 c50 -24 72 -79 51 -129 -30
-72 -111 -89 -165 -35 -51 50 -41 121 22 159 39 24 50 24 92 5z"/>
<path d="M1990 1233 c-73 -38 -100 -124 -60 -190 26 -44 63 -66 110 -66 47 0
84 22 110 66 65 107 -52 245 -160 190z m122 -50 c40 -39 40 -103 -1 -144 -62
-62 -171 -20 -171 66 0 47 14 71 53 96 40 25 81 19 119 -18z"/>
<path d="M2450 1232 c-80 -40 -102 -128 -50 -200 39 -55 94 -71 148 -45 81 40
108 141 55 204 -26 30 -77 59 -105 59 -7 0 -29 -8 -48 -18z m95 -28 c40 -19
70 -74 60 -111 -3 -14 -19 -38 -35 -54 -41 -41 -97 -41 -139 2 -53 53 -37 134
33 165 40 17 42 17 81 -2z"/>
<path d="M2236 1009 c-82 -23 -121 -123 -76 -196 26 -44 63 -66 110 -66 47 0
84 22 110 66 60 98 -35 228 -144 196z m101 -51 c38 -42 45 -66 33 -103 -37
-113 -200 -93 -200 25 0 60 41 100 102 100 33 0 50 -6 65 -22z"/>
<path d="M1316 794 c-201 -36 -426 -137 -736 -329 -367 -227 -466 -259 -515
-165 -8 16 -24 72 -35 122 l-19 93 3 -90 c8 -180 67 -233 212 -190 48 14 155
75 434 245 235 143 395 216 586 267 87 23 118 26 254 26 136 0 167 -3 254 -26
191 -51 351 -124 586 -267 379 -231 436 -260 520 -260 79 0 121 67 128 210 2
52 2 93 -1 90 -3 -3 -13 -48 -22 -99 -29 -167 -59 -193 -181 -156 -51 15 -163
77 -429 239 -433 263 -730 346 -1039 290z"/>
<path d="M1294 556 c-85 -22 -221 -71 -236 -85 -7 -6 212 -155 355 -240 l87
-53 88 53 c124 74 361 233 362 242 0 4 -5 7 -12 7 -6 0 -41 12 -76 26 -194 77
-393 95 -568 50z m352 -21 c112 -21 234 -61 234 -75 0 -9 -249 -173 -327 -216
l-53 -29 -52 29 c-85 47 -328 207 -328 216 0 11 141 58 226 74 93 19 206 19
300 1z"/>
</g>
</svg>
